HIERARCHY
ROOT mixamorig:Hips
{
	OFFSET 0.00 0.00 0.00
	CHANNELS 6 Xposition Yposition Zposition Zrotation Yrotation Xrotation
	JOINT mixamorig:Spine
	{
		OFFSET	0.0003	0.3532	-0.0573
		CHANNELS 3 Zrotation Yrotation Xrotation
		JOINT mixamorig:Spine1
		{
			OFFSET	0.0003	0.4120	-0.0669
			CHANNELS 3 Zrotation Yrotation Xrotation
			JOINT mixamorig:Spine2
			{
				OFFSET	0.0003	0.4709	-0.0765
				CHANNELS 3 Zrotation Yrotation Xrotation
				JOINT mixamorig:Neck
				{
					OFFSET	0.0004	0.5298	-0.0860
					CHANNELS 3 Zrotation Yrotation Xrotation
					JOINT mixamorig:Head
					{
						OFFSET	0.0000	0.1895	0.1320
						CHANNELS 3 Zrotation Yrotation Xrotation
						End Site
						{
							OFFSET 0.0000 0.5886 0.4099
						}
					}
				}
				JOINT mixamorig:LeftShoulder
				{
					OFFSET	0.1849	0.4590	-0.0871
					CHANNELS 3 Zrotation Yrotation Xrotation
					JOINT mixamorig:LeftArm
					{
						OFFSET	0.3690	-0.1415	-0.0022
						CHANNELS 3 Zrotation Yrotation Xrotation
						JOINT mixamorig:LeftForeArm
						{
							OFFSET	0.3964	-0.6519	-0.1237
							CHANNELS 3 Zrotation Yrotation Xrotation
							JOINT mixamorig:LeftHand
							{
								OFFSET	0.5764	-0.6226	0.1472
								CHANNELS 3 Zrotation Yrotation Xrotation
								JOINT mixamorig:LeftHandThumb1
								{
									OFFSET	0.0197	-0.0796	0.1118
									CHANNELS 3 Zrotation Yrotation Xrotation
									JOINT mixamorig:LeftHandThumb2
									{
										OFFSET	0.0157	-0.0637	0.0895
										CHANNELS 3 Zrotation Yrotation Xrotation
										JOINT mixamorig:LeftHandThumb3
										{
											OFFSET	-0.0015	-0.0767	0.0821
											CHANNELS 3 Zrotation Yrotation Xrotation
											End Site
											{
												OFFSET 0.0127 -0.0774 0.0583
											}
										}
									}
								}
								JOINT mixamorig:LeftHandIndex1
								{
									OFFSET	0.1714	-0.2631	0.1872
									CHANNELS 3 Zrotation Yrotation Xrotation
									JOINT mixamorig:LeftHandIndex2
									{
										OFFSET	0.0060	-0.0801	0.0311
										CHANNELS 3 Zrotation Yrotation Xrotation
										JOINT mixamorig:LeftHandIndex3
										{
											OFFSET	-0.0321	-0.0621	0.0398
											CHANNELS 3 Zrotation Yrotation Xrotation
											End Site
											{
												OFFSET -0.0261 -0.0507 0.0323
											}
										}
									}
								}
								JOINT mixamorig:LeftHandMiddle1
								{
									OFFSET	0.1625	-0.2932	0.1100
									CHANNELS 3 Zrotation Yrotation Xrotation
									JOINT mixamorig:LeftHandMiddle2
									{
										OFFSET	0.0183	-0.0999	0.0183
										CHANNELS 3 Zrotation Yrotation Xrotation
										JOINT mixamorig:LeftHandMiddle3
										{
											OFFSET	-0.0325	-0.0777	0.0319
											CHANNELS 3 Zrotation Yrotation Xrotation
											End Site
											{
												OFFSET -0.0344 -0.0692 0.0305
											}
										}
									}
								}
								JOINT mixamorig:LeftHandRing1
								{
									OFFSET	0.1452	-0.3135	0.0420
									CHANNELS 3 Zrotation Yrotation Xrotation
									JOINT mixamorig:LeftHandRing2
									{
										OFFSET	0.0024	-0.0846	0.0071
										CHANNELS 3 Zrotation Yrotation Xrotation
										JOINT mixamorig:LeftHandRing3
										{
											OFFSET	-0.0346	-0.0713	0.0176
											CHANNELS 3 Zrotation Yrotation Xrotation
											End Site
											{
												OFFSET -0.0327 -0.0594 0.0159
											}
										}
									}
								}
								JOINT mixamorig:LeftHandPinky1
								{
									OFFSET	0.1155	-0.2931	-0.0339
									CHANNELS 3 Zrotation Yrotation Xrotation
									JOINT mixamorig:LeftHandPinky2
									{
										OFFSET	-0.0194	-0.0716	0.0062
										CHANNELS 3 Zrotation Yrotation Xrotation
										JOINT mixamorig:LeftHandPinky3
										{
											OFFSET	-0.0403	-0.0460	0.0127
											CHANNELS 3 Zrotation Yrotation Xrotation
											End Site
											{
												OFFSET -0.0260 -0.0424 0.0088
											}
										}
									}
								}
							}
						}
					}
				}
				JOINT mixamorig:RightShoulder
				{
					OFFSET	-0.1852	0.4590	-0.0850
					CHANNELS 3 Zrotation Yrotation Xrotation
					JOINT mixamorig:RightArm
					{
						OFFSET	-0.3711	-0.1415	0.0022
						CHANNELS 3 Zrotation Yrotation Xrotation
						JOINT mixamorig:RightForeArm
						{
							OFFSET	-0.3963	-0.6518	-0.1296
							CHANNELS 3 Zrotation Yrotation Xrotation
							JOINT mixamorig:RightHand
							{
								OFFSET	-0.5764	-0.6226	0.1473
								CHANNELS 3 Zrotation Yrotation Xrotation
								JOINT mixamorig:RightHandThumb1
								{
									OFFSET	-0.0193	-0.0819	0.1135
									CHANNELS 3 Zrotation Yrotation Xrotation
									JOINT mixamorig:RightHandThumb2
									{
										OFFSET	-0.0154	-0.0655	0.0908
										CHANNELS 3 Zrotation Yrotation Xrotation
										JOINT mixamorig:RightHandThumb3
										{
											OFFSET	0.0001	-0.0747	0.0791
											CHANNELS 3 Zrotation Yrotation Xrotation
											End Site
											{
												OFFSET -0.0224 -0.0736 0.0526
											}
										}
									}
								}
								JOINT mixamorig:RightHandIndex1
								{
									OFFSET	-0.1766	-0.2671	0.1923
									CHANNELS 3 Zrotation Yrotation Xrotation
									JOINT mixamorig:RightHandIndex2
									{
										OFFSET	-0.0025	-0.0741	0.0278
										CHANNELS 3 Zrotation Yrotation Xrotation
										JOINT mixamorig:RightHandIndex3
										{
											OFFSET	0.0319	-0.0619	0.0372
											CHANNELS 3 Zrotation Yrotation Xrotation
											End Site
											{
												OFFSET 0.0246 -0.0530 0.0305
											}
										}
									}
								}
								JOINT mixamorig:RightHandMiddle1
								{
									OFFSET	-0.1688	-0.3123	0.1112
									CHANNELS 3 Zrotation Yrotation Xrotation
									JOINT mixamorig:RightHandMiddle2
									{
										OFFSET	-0.0141	-0.0947	0.0219
										CHANNELS 3 Zrotation Yrotation Xrotation
										JOINT mixamorig:RightHandMiddle3
										{
											OFFSET	0.0360	-0.0687	0.0336
											CHANNELS 3 Zrotation Yrotation Xrotation
											End Site
											{
												OFFSET 0.0360 -0.0619 0.0317
											}
										}
									}
								}
								JOINT mixamorig:RightHandRing1
								{
									OFFSET	-0.1480	-0.3164	0.0412
									CHANNELS 3 Zrotation Yrotation Xrotation
									JOINT mixamorig:RightHandRing2
									{
										OFFSET	0.0000	-0.0825	0.0050
										CHANNELS 3 Zrotation Yrotation Xrotation
										JOINT mixamorig:RightHandRing3
										{
											OFFSET	0.0353	-0.0685	0.0150
											CHANNELS 3 Zrotation Yrotation Xrotation
											End Site
											{
												OFFSET 0.0308 -0.0591 0.0129
											}
										}
									}
								}
								JOINT mixamorig:RightHandPinky1
								{
									OFFSET	-0.1101	-0.2998	-0.0330
									CHANNELS 3 Zrotation Yrotation Xrotation
									JOINT mixamorig:RightHandPinky2
									{
										OFFSET	0.0161	-0.0703	0.0076
										CHANNELS 3 Zrotation Yrotation Xrotation
										JOINT mixamorig:RightHandPinky3
										{
											OFFSET	0.0385	-0.0439	0.0145
											CHANNELS 3 Zrotation Yrotation Xrotation
											End Site
											{
												OFFSET 0.0244 -0.0363 0.0109
											}
										}
									}
								}
							}
						}
					}
				}
			}
		}
	}
	JOINT mixamorig:LeftUpLeg
	{
		OFFSET	0.3433	-0.1962	0.0172
		CHANNELS 3 Zrotation Yrotation Xrotation
		JOINT mixamorig:LeftLeg
		{
			OFFSET	0.1178	-1.3592	-0.0187
			CHANNELS 3 Zrotation Yrotation Xrotation
			JOINT mixamorig:LeftFoot
			{
				OFFSET	0.0505	-1.0354	-0.0118
				CHANNELS 3 Zrotation Yrotation Xrotation
				JOINT mixamorig:LeftToeBase
				{
					OFFSET	0.1401	-0.2922	0.3846
					CHANNELS 3 Zrotation Yrotation Xrotation
					End Site
					{
						OFFSET 0.0538 -0.0024 0.1849
					}
				}
			}
		}
	}
	JOINT mixamorig:RightUpLeg
	{
		OFFSET	-0.3439	-0.1962	0.0123
		CHANNELS 3 Zrotation Yrotation Xrotation
		JOINT mixamorig:RightLeg
		{
			OFFSET	-0.1178	-1.3592	-0.0020
			CHANNELS 3 Zrotation Yrotation Xrotation
			JOINT mixamorig:RightFoot
			{
				OFFSET	-0.0505	-1.0354	-0.0192
				CHANNELS 3 Zrotation Yrotation Xrotation
				JOINT mixamorig:RightToeBase
				{
					OFFSET	-0.1401	-0.2923	0.3682
					CHANNELS 3 Zrotation Yrotation Xrotation
					End Site
					{
						OFFSET -0.0538 -0.0024 0.1832
					}
				}
			}
		}
	}
}
MOTION
Frames: 6
Frame Time: 0.0333333
0.0130 2.8572 -0.0203 0.7161 -32.3254 -1.2194 -0.4742 4.6941 1.9834 -0.7392 9.4268 3.9492 -0.7392 9.4268 3.9492 1.1101 -6.6296 -10.2003 4.2345 14.4981 7.1755 -5.2940 -0.7750 0.4424 -13.2571 -6.0432 -13.2354 -14.8650 -13.8251 4.9564 16.8306 -6.0473 26.6084 -8.1178 -10.9154 18.1774 5.1680 5.9621 -6.9405 -5.2329 -6.4205 -9.6176 19.3941 6.7326 -8.6458 11.3546 1.9654 10.5163 0.0000 -0.0000 -0.0000 4.0688 -2.0736 -4.4715 8.1804 0.8741 6.9584 0.0000 0.0000 -0.0000 -4.1455 -3.4626 -8.0432 -5.4295 -1.4651 2.2296 0.0000 0.0000 -0.0000 7.1257 1.3914 -4.6923 -13.9528 -4.7266 0.9695 -9.3704 -0.6257 -2.4294 6.0205 8.0889 1.5042 11.0858 -11.6729 -15.8559 17.6605 -5.9118 -0.7705 -4.5025 15.1217 22.5003 8.8843 -4.8596 7.4060 -6.6731 -6.8288 14.1064 8.7552 11.0293 -10.0575 -19.5917 -7.7728 -0.2713 -9.1460 -0.9327 8.9160 0.0000 0.0000 -0.0000 -7.2425 -0.0413 -8.5123 -2.1137 0.9297 5.8231 -0.0000 0.0000 -0.0000 -7.8005 3.4418 -16.0174 10.4890 1.2107 -1.2469 0.0000 0.0000 0.0000 -15.2834 -1.1461 -11.5648 13.1867 3.8372 -1.3755 6.9208 1.4781 -0.9043 -0.4666 11.3277 -13.0504 -0.0698 -0.6013 15.5474 -0.0490 0.0257 -1.7104 0.9343 -3.1818 -2.3705 -1.7378 -17.1985 -1.1937 -2.3549 -6.3394 16.8868 2.9456 0.2244 -14.1994 -0.5792 -0.3750 -0.9517 
0.0130 2.8573 -0.0202 0.7121 -32.3951 -1.1842 -0.4808 4.6988 1.9829 -0.7527 9.4365 3.9475 -0.7527 9.4365 3.9475 1.1697 -6.5936 -10.0218 4.5875 14.5524 7.4861 -5.3019 -0.7709 0.4430 -13.2538 -5.9163 -13.1165 -14.8634 -13.8443 4.9366 16.8638 -6.0518 26.6101 -8.1030 -10.8976 18.3882 5.1920 5.9906 -6.7310 -5.2329 -6.4205 -9.6176 19.2514 6.6328 -8.6667 11.1732 1.9020 10.4723 -0.0000 -0.0000 0.0000 3.8913 -2.1318 -4.4988 8.0088 0.8387 6.9158 0.0000 0.0000 -0.0000 -4.3125 -3.5010 -8.0680 -5.6213 -1.4858 2.1924 0.0000 0.0000 -0.0000 6.9467 1.3729 -4.7192 -14.1292 -4.7556 0.9537 -9.3704 -0.6256 -2.4294 6.0299 8.1213 1.5004 10.9667 -11.7596 -15.7543 17.6669 -5.9426 -0.6984 -4.5916 15.0937 22.4944 8.9272 -4.6650 7.4875 -6.6947 -6.8582 14.1082 8.7552 11.0293 -10.0575 -19.6844 -7.8124 -0.2430 -9.1808 -0.9447 8.9245 -0.0000 -0.0000 0.0000 -7.3335 -0.0846 -8.4838 -2.2103 0.9022 5.8426 -0.0000 0.0000 -0.0000 -7.8753 3.4158 -15.9917 10.3773 1.1998 -1.2190 0.0000 0.0000 0.0000 -15.3804 -1.1684 -11.5368 13.0866 3.8222 -1.3584 6.9208 1.4781 -0.9043 -0.4795 11.3048 -13.0727 0.0067 -0.5269 15.5486 -0.0958 0.0262 -1.7257 0.9343 -3.1818 -2.3705 -1.7056 -17.1956 -1.2465 -2.3769 -6.2721 16.8808 2.9524 0.2247 -14.1842 -0.5802 -0.3714 -0.9535 
0.0128 2.8574 -0.0201 0.7080 -32.4649 -1.1489 -0.4875 4.7036 1.9823 -0.7662 9.4462 3.9458 -0.7662 9.4462 3.9458 1.2293 -6.5579 -9.8434 4.9409 14.6049 7.7970 -5.3096 -0.7669 0.4435 -13.2503 -5.7895 -12.9976 -14.8617 -13.8634 4.9166 16.8971 -6.0563 26.6118 -8.0880 -10.8797 18.5990 5.2161 6.0190 -6.5215 -5.2329 -6.4205 -9.6176 19.1088 6.5330 -8.6874 10.9919 1.8385 10.4284 0.0000 -0.0000 -0.0000 3.7138 -2.1900 -4.5258 7.8372 0.8032 6.8733 0.0000 0.0000 -0.0000 -4.4795 -3.5395 -8.0928 -5.8130 -1.5067 2.1552 0.0000 -0.0000 -0.0000 6.7676 1.3543 -4.7460 -14.3055 -4.7846 0.9380 -9.3704 -0.6256 -2.4294 6.0394 8.1536 1.4966 10.8475 -11.8460 -15.6525 17.6733 -5.9735 -0.6264 -4.6808 15.0657 22.4885 8.9702 -4.4705 7.5692 -6.7162 -6.8877 14.1100 8.7552 11.0293 -10.0575 -19.7771 -7.8519 -0.2147 -9.2155 -0.9567 8.9330 0.0000 0.0000 0.0000 -7.4246 -0.1279 -8.4553 -2.3069 0.8749 5.8620 0.0000 0.0000 -0.0000 -7.9501 3.3899 -15.9660 10.2655 1.1889 -1.1910 0.0000 -0.0000 0.0000 -15.4776 -1.1907 -11.5088 12.9866 3.8072 -1.3414 6.9208 1.4781 -0.9043 -0.4925 11.2819 -13.0938 0.0832 -0.4526 15.5473 -0.1426 0.0268 -1.7407 0.9343 -3.1818 -2.3705 -1.6734 -17.1928 -1.2981 -2.3986 -6.2048 16.8720 2.9591 0.2248 -14.1674 -0.5812 -0.3677 -0.9553 
0.0124 2.8575 -0.0202 0.7056 -32.5290 -1.1003 -0.4921 4.6994 1.9903 -0.7755 9.4382 3.9614 -0.7755 9.4382 3.9614 1.2533 -6.4340 -9.6679 5.3759 14.7377 8.1453 -5.3446 -0.7451 0.4406 -13.2341 -5.6369 -12.8988 -14.8429 -13.8532 4.8525 17.0035 -6.0610 26.6046 -8.0611 -10.8486 18.7784 5.2399 6.0443 -6.2909 -5.2329 -6.4205 -9.6176 18.9708 6.4399 -8.7071 10.8374 1.7843 10.3912 0.0000 0.0000 0.0000 3.5450 -2.2452 -4.5515 7.6834 0.7716 6.8352 -0.0000 -0.0000 0.0000 -4.6677 -3.5824 -8.1192 -5.9718 -1.5240 2.1261 -0.0000 -0.0000 0.0000 6.5934 1.3353 -4.7813 -14.4621 -4.8100 0.9240 -9.3704 -0.6256 -2.4294 6.0251 8.1787 1.4979 10.7089 -11.9483 -15.5936 17.6593 -6.0502 -0.5549 -4.7668 15.0709 22.5177 9.0095 -4.3766 7.6626 -6.7109 -6.8748 14.1094 8.7552 11.0293 -10.0575 -19.8801 -7.8955 -0.1830 -9.3088 -0.9882 8.9561 -0.0000 0.0000 0.0000 -7.5357 -0.1780 -8.4373 -2.4052 0.8472 5.8820 0.0000 0.0000 0.0000 -8.0708 3.3471 -15.9410 10.1450 1.1775 -1.1618 -0.0000 -0.0000 -0.0000 -15.5911 -1.2166 -11.4785 12.8712 3.7885 -1.3207 6.9208 1.4781 -0.9043 -0.4916 11.2343 -13.1127 0.1544 -0.3551 15.5117 -0.1965 0.0249 -1.7353 0.9343 -3.1818 -2.3705 -1.6212 -17.1743 -1.3632 -2.4343 -6.1607 16.8609 2.9640 0.2227 -14.1538 -0.5823 -0.3691 -0.9570 
0.0119 2.8576 -0.0203 0.7030 -32.5932 -1.0517 -0.4967 4.6953 1.9983 -0.7849 9.4301 3.9771 -0.7849 9.4301 3.9771 1.2776 -6.3102 -9.4923 5.8120 14.8681 8.4949 -5.3796 -0.7233 0.4378 -13.2178 -5.4844 -12.8000 -14.8240 -13.8429 4.7885 17.1101 -6.0658 26.5973 -8.0340 -10.8174 18.9578 5.2639 6.0696 -6.0604 -5.2329 -6.4205 -9.6176 18.8330 6.3468 -8.7266 10.6830 1.7300 10.3542 -0.0000 0.0000 -0.0000 3.3762 -2.3005 -4.5770 7.5296 0.7399 6.7972 0.0000 -0.0000 -0.0000 -4.8559 -3.6253 -8.1454 -6.1307 -1.5415 2.0970 0.0000 0.0000 -0.0000 6.4191 1.3163 -4.8166 -14.6187 -4.8356 0.9101 -9.3704 -0.6256 -2.4294 6.0109 8.2038 1.4993 10.5702 -12.0504 -15.5344 17.6452 -6.1269 -0.4834 -4.8529 15.0760 22.5468 9.0488 -4.2827 7.7560 -6.7055 -6.8619 14.1088 8.7552 11.0293 -10.0575 -19.9833 -7.9390 -0.1511 -9.4022 -1.0196 8.9792 0.0000 -0.0000 -0.0000 -7.6468 -0.2281 -8.4192 -2.5035 0.8196 5.9020 -0.0000 0.0000 0.0000 -8.1916 3.3044 -15.9159 10.0244 1.1661 -1.1325 0.0000 0.0000 0.0000 -15.7047 -1.2423 -11.4480 12.7557 3.7699 -1.2999 6.9208 1.4781 -0.9043 -0.4907 11.1864 -13.1351 0.2255 -0.2574 15.4832 -0.2504 0.0230 -1.7302 0.9343 -3.1818 -2.3705 -1.5692 -17.1554 -1.4326 -2.4712 -6.1167 16.8600 2.9695 0.2211 -14.1460 -0.5834 -0.3704 -0.9588 
0.0111 2.8576 -0.0205 0.6838 -32.6243 -1.0017 -0.4991 4.6783 2.0188 -0.7886 9.3964 4.0181 -0.7886 9.3964 4.0181 1.3026 -6.1187 -9.3530 6.3116 15.0655 8.8958 -5.4141 -0.6769 0.4328 -13.1881 -5.3343 -12.7535 -14.7848 -13.8179 4.6796 17.2830 -6.0659 26.6003 -8.0185 -10.7390 19.1523 5.2766 6.0720 -5.7856 -5.2329 -6.4205 -9.6176 18.6988 6.2605 -8.7590 10.5513 1.6833 10.3226 -0.0000 -0.0000 -0.0000 3.2359 -2.3468 -4.5980 7.3906 0.7107 6.7629 -0.0000 -0.0000 -0.0000 -4.9969 -3.6568 -8.1610 -6.2679 -1.5569 2.0713 0.0000 0.0000 0.0000 6.2803 1.2974 -4.8311 -14.7504 -4.8573 0.8985 -9.3704 -0.6256 -2.4294 6.0144 8.2249 1.4960 10.3957 -12.1642 -15.4875 17.6297 -6.1943 -0.4603 -4.9144 15.0713 22.5507 9.0872 -4.2809 7.8646 -6.6811 -6.7981 14.1110 8.7552 11.0293 -10.0575 -20.0866 -7.9830 -0.1190 -9.5261 -1.0621 9.0101 0.0000 -0.0000 0.0000 -7.7442 -0.2724 -8.4012 -2.6305 0.7848 5.9312 0.0000 0.0000 0.0000 -8.3116 3.2606 -15.8985 9.9098 1.1537 -1.1059 0.0000 0.0000 0.0000 -15.8314 -1.2713 -11.4139 12.6278 3.7472 -1.2763 6.9208 1.4781 -0.9043 -0.4679 11.0952 -13.1761 0.3108 -0.1520 15.5123 -0.3229 0.0195 -1.7588 0.9343 -3.1818 -2.3705 -1.4941 -17.1473 -1.4858 -2.5175 -6.0958 16.8626 2.9734 0.2196 -14.1517 -0.5841 -0.3694 -0.9600 
